<svg width="44" height="44" viewBox="0 0 44 44" fill="none" xmlns="http://www.w3.org/2000/svg">
<path d="M43.125 22.0039C43.125 26.2567 41.8861 30.4139 39.5648 33.9499C37.2436 37.486 33.9443 40.242 30.0842 41.8694C26.2241 43.4969 21.9766 43.9227 17.8787 43.093C13.7809 42.2633 10.0168 40.2155 7.06238 37.2083C4.10799 34.2012 2.09603 30.3698 1.28092 26.1988C0.465808 22.0278 0.884153 17.7044 2.48305 13.7754C4.08196 9.84637 6.7896 6.48818 10.2636 4.12549C13.7376 1.76279 17.8219 0.501709 22 0.501709C27.6009 0.507729 32.9707 2.77507 36.9311 6.80622C40.8915 10.8374 43.1191 16.303 43.125 22.0039ZM39.875 22.0039C39.875 18.4055 38.8267 14.8878 36.8625 11.8958C34.8984 8.90377 32.1067 6.57177 28.8405 5.1947C25.5742 3.81762 21.9802 3.45731 18.5128 4.15934C15.0454 4.86137 11.8603 6.5942 9.36048 9.1387C6.86061 11.6832 5.15818 14.9251 4.46847 18.4544C3.77876 21.9838 4.13275 25.642 5.48566 28.9666C6.83858 32.2911 9.12966 35.1327 12.0692 37.1319C15.0087 39.1311 18.4647 40.1981 22 40.1981C26.7391 40.1927 31.2826 38.274 34.6336 34.8631C37.9847 31.4523 39.8696 26.8277 39.875 22.0039Z" fill="white"/>
<path d="M43.125 22.0039C43.125 26.2567 41.8861 30.4139 39.5648 33.9499C37.2436 37.486 33.9443 40.242 30.0842 41.8694C26.2241 43.4969 21.9766 43.9227 17.8787 43.093C13.7809 42.2633 10.0168 40.2155 7.06238 37.2083C4.10799 34.2012 2.09603 30.3698 1.28092 26.1988C0.465808 22.0278 0.884153 17.7044 2.48305 13.7754C4.08196 9.84637 6.7896 6.48818 10.2636 4.12549C13.7376 1.76279 17.8219 0.501709 22 0.501709C27.6009 0.507729 32.9707 2.77507 36.9311 6.80622C40.8915 10.8374 43.1191 16.303 43.125 22.0039ZM39.875 22.0039C39.875 18.4055 38.8267 14.8878 36.8625 11.8958C34.8984 8.90377 32.1067 6.57177 28.8405 5.1947C25.5742 3.81762 21.9802 3.45731 18.5128 4.15934C15.0454 4.86137 11.8603 6.5942 9.36048 9.1387C6.86061 11.6832 5.15818 14.9251 4.46847 18.4544C3.77876 21.9838 4.13275 25.642 5.48566 28.9666C6.83858 32.2911 9.12966 35.1327 12.0692 37.1319C15.0087 39.1311 18.4647 40.1981 22 40.1981C26.7391 40.1927 31.2826 38.274 34.6336 34.8631C37.9847 31.4523 39.8696 26.8277 39.875 22.0039Z" stroke="white"/>
<path d="M23.5 11.9012C23.5 11.0728 22.8284 10.4012 22 10.4012C21.1716 10.4012 20.5 11.0728 20.5 11.9012H23.5ZM20.9393 33.1668C21.5251 33.7526 22.4749 33.7526 23.0607 33.1668L32.6066 23.6208C33.1924 23.035 33.1924 22.0853 32.6066 21.4995C32.0208 20.9137 31.0711 20.9137 30.4853 21.4995L22 29.9848L13.5147 21.4995C12.9289 20.9137 11.9792 20.9137 11.3934 21.4995C10.8076 22.0853 10.8076 23.035 11.3934 23.6208L20.9393 33.1668ZM20.5 11.9012V32.1061H23.5V11.9012H20.5Z" fill="white"/>
</svg>
