<svg width="26" height="26" viewBox="0 0 26 26" fill="none" xmlns="http://www.w3.org/2000/svg">
<path d="M13 0.611328C11.3585 0.611328 9.73303 0.93465 8.21646 1.56283C6.69989 2.19102 5.3219 3.11176 4.16117 4.27249C1.81696 6.6167 0.5 9.79612 0.5 13.1113C0.5 18.6363 4.0875 23.3238 9.05 24.9863C9.675 25.0863 9.875 24.6988 9.875 24.3613V22.2488C6.4125 22.9988 5.675 20.5738 5.675 20.5738C5.1 19.1238 4.2875 18.7363 4.2875 18.7363C3.15 17.9613 4.375 17.9863 4.375 17.9863C5.625 18.0738 6.2875 19.2738 6.2875 19.2738C7.375 21.1738 9.2125 20.6113 9.925 20.3113C10.0375 19.4988 10.3625 18.9488 10.7125 18.6363C7.9375 18.3238 5.025 17.2488 5.025 12.4863C5.025 11.0988 5.5 9.98633 6.3125 9.09883C6.1875 8.78633 5.75 7.48633 6.4375 5.79883C6.4375 5.79883 7.4875 5.46133 9.875 7.07383C10.8625 6.79883 11.9375 6.66133 13 6.66133C14.0625 6.66133 15.1375 6.79883 16.125 7.07383C18.5125 5.46133 19.5625 5.79883 19.5625 5.79883C20.25 7.48633 19.8125 8.78633 19.6875 9.09883C20.5 9.98633 20.975 11.0988 20.975 12.4863C20.975 17.2613 18.05 18.3113 15.2625 18.6238C15.7125 19.0113 16.125 19.7738 16.125 20.9363V24.3613C16.125 24.6988 16.325 25.0988 16.9625 24.9863C21.925 23.3113 25.5 18.6363 25.5 13.1113C25.5 11.4698 25.1767 9.84435 24.5485 8.32778C23.9203 6.81121 22.9996 5.43323 21.8388 4.27249C20.6781 3.11176 19.3001 2.19102 17.7835 1.56283C16.267 0.93465 14.6415 0.611328 13 0.611328Z" fill="white"/>
</svg>
