<svg width="30" height="31" viewBox="0 0 30 31" fill="none" xmlns="http://www.w3.org/2000/svg">
<path d="M10.2625 15.617L8.6 16.7295V14.5045L10.2625 15.617ZM14.3375 12.892V9.792L9.1375 13.267L11.45 14.817L14.3375 12.892ZM20.875 13.267L15.6625 9.792V12.892L18.55 14.817L20.875 13.267ZM9.1375 17.967L14.3375 21.442L14.3375 18.342L11.45 16.417L9.1375 17.967ZM15.6625 18.342L15.6625 21.442L20.875 17.967L18.55 16.417L15.6625 18.342ZM15 14.042L12.65 15.617L15 17.192L17.35 15.617L15 14.042ZM27.5 15.617C27.5 22.492 21.875 28.117 15 28.117C8.125 28.117 2.5 22.492 2.5 15.617C2.5 8.742 8.125 3.117 15 3.117C21.875 3.117 27.5 8.742 27.5 15.617ZM22.725 13.267V13.1795L22.7125 13.117L22.7 13.0545C22.6875 13.042 22.6875 13.0295 22.675 13.0045L22.6625 12.9795L22.6375 12.9295L22.625 12.9045L22.6 12.867L22.575 12.8295L22.5375 12.792L22.5 12.767V12.742L22.45 12.717L22.4375 12.7045L15.375 8.0045C15.266 7.9311 15.1376 7.89188 15.0063 7.89188C14.8749 7.89188 14.7465 7.9311 14.6375 8.0045L7.5625 12.7045V12.717L7.5 12.742V12.767L7.4625 12.792L7.425 12.8295L7.4125 12.867L7.375 12.9045L7.3625 12.9295L7.3375 12.9795L7.325 13.0045L7.3 13.0545V13.117H7.2875L7.275 13.1795L7.275 18.0545L7.2875 18.117H7.3V18.1795C7.3125 18.192 7.3125 18.2045 7.325 18.2295L7.3375 18.2545L7.3625 18.3045L7.375 18.3295L7.4 18.367L7.425 18.4045L7.4625 18.442L7.5 18.467V18.492L7.55 18.517L7.5625 18.5295L14.6375 23.242C14.7375 23.317 14.875 23.342 15 23.342C15.125 23.342 15.2625 23.3045 15.375 23.242L22.4375 18.5295L22.45 18.517L22.5 18.492V18.467L22.5375 18.442L22.575 18.4045L22.6 18.367L22.625 18.3295L22.6375 18.3045L22.6625 18.2545L22.675 18.2295L22.7 18.1795V18.117H22.7125L22.725 18.0545L22.725 13.267ZM21.4 16.7295V14.5045L19.7375 15.617L21.4 16.7295Z" fill="white"/>
</svg>
