<svg width="30" height="31" viewBox="0 0 30 31" fill="none" xmlns="http://www.w3.org/2000/svg">
<path d="M12.5 19.6756L18.9875 15.9256L12.5 12.1756L12.5 19.6756ZM26.95 9.8881C27.1125 10.4756 27.225 11.2631 27.3 12.2631C27.3875 13.2631 27.425 14.1256 27.425 14.8756L27.5 15.9256C27.5 18.6631 27.3 20.6756 26.95 21.9631C26.6375 23.0881 25.9125 23.8131 24.7875 24.1256C24.2 24.2881 23.125 24.4006 21.475 24.4756C19.85 24.5631 18.3625 24.6006 16.9875 24.6006L15 24.6756C9.7625 24.6756 6.5 24.4756 5.2125 24.1256C4.0875 23.8131 3.3625 23.0881 3.05 21.9631C2.8875 21.3756 2.775 20.5881 2.7 19.5881C2.6125 18.5881 2.575 17.7256 2.575 16.9756L2.5 15.9256C2.5 13.1881 2.7 11.1756 3.05 9.8881C3.3625 8.7631 4.0875 8.0381 5.2125 7.7256C5.8 7.5631 6.875 7.4506 8.525 7.3756C10.15 7.2881 11.6375 7.2506 13.0125 7.2506L15 7.1756C20.2375 7.1756 23.5 7.3756 24.7875 7.7256C25.9125 8.0381 26.6375 8.7631 26.95 9.8881Z" fill="white"/>
</svg>
