<svg width="30" height="31" viewBox="0 0 30 31" fill="none" xmlns="http://www.w3.org/2000/svg">
<path d="M28.0748 7.73419C27.1123 8.17169 26.0748 8.45919 24.9998 8.59669C26.0998 7.93419 26.9498 6.88419 27.3498 5.62169C26.3123 6.24669 25.1623 6.68419 23.9498 6.93419C22.9623 5.85919 21.5748 5.23419 19.9998 5.23419C17.0623 5.23419 14.6623 7.63419 14.6623 10.5967C14.6623 11.0217 14.7123 11.4342 14.7998 11.8217C10.3498 11.5967 6.3873 9.45919 3.7498 6.22169C3.2873 7.00919 3.0248 7.93419 3.0248 8.90919C3.0248 10.7717 3.9623 12.4217 5.4123 13.3592C4.5248 13.3592 3.6998 13.1092 2.9748 12.7342V12.7717C2.9748 15.3717 4.8248 17.5467 7.27481 18.0342C6.48821 18.2495 5.66242 18.2794 4.8623 18.1217C5.20181 19.1873 5.86673 20.1197 6.76358 20.7879C7.66042 21.456 8.74411 21.8263 9.8623 21.8467C7.96684 23.3472 5.6173 24.1583 3.1998 24.1467C2.7748 24.1467 2.3498 24.1217 1.9248 24.0717C4.2998 25.5967 7.1248 26.4842 10.1498 26.4842C19.9998 26.4842 25.4123 18.3092 25.4123 11.2217C25.4123 10.9842 25.4123 10.7592 25.3998 10.5217C26.4498 9.77169 27.3498 8.82169 28.0748 7.73419Z" fill="white"/>
</svg>
