<svg width="52" height="52" viewBox="0 0 52 52" fill="none" xmlns="http://www.w3.org/2000/svg">
<path d="M27.9408 26.1138L27.5963 26.4643L27.9408 26.8147L33.293 32.2605C33.2931 32.2606 33.2931 32.2606 33.2931 32.2606C33.398 32.3674 33.4818 32.4948 33.539 32.6355C33.5963 32.7763 33.6259 32.9275 33.6259 33.0803C33.6259 33.2332 33.5963 33.3844 33.539 33.5252C33.4817 33.666 33.398 33.7933 33.293 33.9001C33.1881 34.007 33.0639 34.0912 32.928 34.1486C32.792 34.2059 32.6466 34.2353 32.5 34.2353C32.3534 34.2353 32.208 34.2059 32.0721 34.1486C31.9361 34.0913 31.812 34.007 31.7071 33.9002C31.707 33.9002 31.707 33.9002 31.707 33.9001L26.3567 28.4523L26 28.0891L25.6433 28.4523L20.293 33.9001C20.293 33.9002 20.293 33.9002 20.293 33.9002C20.188 34.007 20.0639 34.0913 19.928 34.1486C19.792 34.2059 19.6466 34.2353 19.5 34.2353C19.3534 34.2353 19.208 34.2059 19.0721 34.1486C18.9361 34.0912 18.812 34.007 18.707 33.9001C18.602 33.7933 18.5183 33.666 18.461 33.5252C18.4037 33.3844 18.3741 33.2332 18.3741 33.0803C18.3741 32.9275 18.4037 32.7763 18.461 32.6355C18.5183 32.4948 18.602 32.3674 18.7069 32.2606C18.7069 32.2606 18.707 32.2606 18.707 32.2605L24.0593 26.8147L24.4037 26.4643L24.0593 26.1138L18.707 20.668C18.4948 20.4521 18.3741 20.1573 18.3741 19.8482C18.3741 19.5391 18.4948 19.2443 18.707 19.0284C18.9188 18.8128 19.2043 18.6933 19.5 18.6933C19.7957 18.6933 20.0812 18.8128 20.293 19.0284L25.6433 24.4762L26 24.8395L26.3567 24.4762L31.707 19.0284C31.707 19.0284 31.707 19.0283 31.7071 19.0283C31.812 18.9215 31.9361 18.8373 32.0721 18.78C32.208 18.7226 32.3534 18.6933 32.5 18.6933C32.6466 18.6933 32.792 18.7226 32.928 18.78C33.0639 18.8373 33.1881 18.9216 33.293 19.0284C33.398 19.1352 33.4817 19.2626 33.539 19.4033C33.5963 19.5441 33.6259 19.6953 33.6259 19.8482C33.6259 20.0011 33.5963 20.1523 33.539 20.2931C33.4818 20.4338 33.398 20.5611 33.2931 20.6679C33.2931 20.668 33.2931 20.668 33.293 20.668L27.9408 26.1138ZM44.375 26.4648V26.4643C44.375 22.7689 43.2985 19.1557 41.2805 16.0817C39.2625 13.0076 36.3933 10.6103 33.0347 9.1943C29.676 7.77824 25.9797 7.40759 22.4136 8.12961C18.8474 8.85162 15.573 10.6335 13.0038 13.2486C10.4347 15.8636 8.68609 19.1942 7.97776 22.8189C7.26943 26.4435 7.63289 30.2005 9.02254 33.6154C10.4122 37.0303 12.7662 39.9504 15.788 42.0056C18.81 44.0609 22.3638 45.1585 26 45.1585H26.0006C30.875 45.1528 35.5463 43.1793 38.9903 39.6739C42.434 36.1687 44.3695 31.4181 44.375 26.4648ZM46.625 26.4648C46.6249 30.6204 45.4142 34.682 43.1468 38.1359C40.8795 41.5898 37.6577 44.2805 33.89 45.869C30.1223 47.4575 25.977 47.873 21.9779 47.0633C17.9788 46.2536 14.3041 44.2548 11.419 41.3182C8.53391 38.3816 6.56813 34.639 5.77164 30.5632C4.97514 26.4875 5.38401 22.2629 6.94618 18.4242C8.50831 14.5855 11.1531 11.306 14.5448 8.99926C17.9363 6.69268 21.9226 5.46209 25.9998 5.46204C31.4652 5.46799 36.707 7.68046 40.5744 11.617C44.4422 15.5538 46.6192 20.8935 46.625 26.4648Z" fill="white" stroke="white"/>
</svg>
