<svg width="52" height="52" viewBox="0 0 52 52" fill="none" xmlns="http://www.w3.org/2000/svg">
<path d="M11.3333 37C10.8139 37 10.3788 36.824 10.028 36.472C9.676 36.1212 9.5 35.6861 9.5 35.1667C9.5 34.6472 9.676 34.2121 10.028 33.8613C10.3788 33.5093 10.8139 33.3333 11.3333 33.3333H40.6667C41.1861 33.3333 41.6212 33.5093 41.972 33.8613C42.324 34.2121 42.5 34.6472 42.5 35.1667C42.5 35.6861 42.324 36.1212 41.972 36.472C41.6212 36.824 41.1861 37 40.6667 37H11.3333ZM11.3333 27.8333C10.8139 27.8333 10.3788 27.6573 10.028 27.3053C9.676 26.9546 9.5 26.5194 9.5 26C9.5 25.4806 9.676 25.0448 10.028 24.6928C10.3788 24.3421 10.8139 24.1667 11.3333 24.1667H40.6667C41.1861 24.1667 41.6212 24.3421 41.972 24.6928C42.324 25.0448 42.5 25.4806 42.5 26C42.5 26.5194 42.324 26.9546 41.972 27.3053C41.6212 27.6573 41.1861 27.8333 40.6667 27.8333H11.3333ZM11.3333 18.6667C10.8139 18.6667 10.3788 18.4913 10.028 18.1405C9.676 17.7885 9.5 17.3528 9.5 16.8333C9.5 16.3139 9.676 15.8782 10.028 15.5262C10.3788 15.1754 10.8139 15 11.3333 15H40.6667C41.1861 15 41.6212 15.1754 41.972 15.5262C42.324 15.8782 42.5 16.3139 42.5 16.8333C42.5 17.3528 42.324 17.7885 41.972 18.1405C41.6212 18.4913 41.1861 18.6667 40.6667 18.6667H11.3333Z" fill="white"/>
</svg>
