<svg width="34" height="23" viewBox="0 0 34 23" fill="none" xmlns="http://www.w3.org/2000/svg">
<path d="M2.33333 22.1395C1.81389 22.1395 1.37878 21.9635 1.028 21.6115C0.676 21.2607 0.5 20.8256 0.5 20.3061C0.5 19.7867 0.676 19.3516 1.028 19.0008C1.37878 18.6488 1.81389 18.4728 2.33333 18.4728H31.6667C32.1861 18.4728 32.6212 18.6488 32.972 19.0008C33.324 19.3516 33.5 19.7867 33.5 20.3061C33.5 20.8256 33.324 21.2607 32.972 21.6115C32.6212 21.9635 32.1861 22.1395 31.6667 22.1395H2.33333ZM2.33333 12.9728C1.81389 12.9728 1.37878 12.7968 1.028 12.4448C0.676 12.094 0.5 11.6589 0.5 11.1395C0.5 10.62 0.676 10.1843 1.028 9.8323C1.37878 9.48152 1.81389 9.30613 2.33333 9.30613H31.6667C32.1861 9.30613 32.6212 9.48152 32.972 9.8323C33.324 10.1843 33.5 10.62 33.5 11.1395C33.5 11.6589 33.324 12.094 32.972 12.4448C32.6212 12.7968 32.1861 12.9728 31.6667 12.9728H2.33333ZM2.33333 3.80613C1.81389 3.80613 1.37878 3.63074 1.028 3.27997C0.676 2.92797 0.5 2.49224 0.5 1.9728C0.5 1.45335 0.676 1.01763 1.028 0.665632C1.37878 0.314855 1.81389 0.139465 2.33333 0.139465H31.6667C32.1861 0.139465 32.6212 0.314855 32.972 0.665632C33.324 1.01763 33.5 1.45335 33.5 1.9728C33.5 2.49224 33.324 2.92797 32.972 3.27997C32.6212 3.63074 32.1861 3.80613 31.6667 3.80613H2.33333Z" fill="white"/>
</svg>
